<svg width="134" height="31" viewBox="0 0 134 31" fill="none" xmlns="http://www.w3.org/2000/svg">
<path d="M118.002 9.51652V14.5227H126.354L123.77 18.0968H129.936L133.585 13.0754V9.51652H118.002ZM121.218 21.6246L117.586 26.646V30.2041H134V25.1986H124.774L127.372 21.6246H121.218ZM113.946 9.51725H108.586V18.0968H113.946V9.51725ZM99.9026 9.51725H94.5414V18.0968H99.9026V9.51725ZM94.5406 21.6246V22.2187C94.5406 27.7223 97.9908 30.7838 102.395 30.7838C105.179 30.7838 107.339 29.7493 108.586 27.8869V30.2048H113.946V21.6246H108.52C108.199 24.5424 106.389 25.8194 104.015 25.8194C101.627 25.8194 99.936 24.3908 99.9062 21.6246H94.5406ZM84.3198 18.0968H89.6804V0H84.3198V18.0968ZM84.3198 30.2041H89.6804V21.6246H84.3198V30.2041ZM79.4574 18.0968V9.51725H74.0976V11.9579C72.6012 10.0962 70.3581 8.93758 67.3241 8.93758C62.3391 8.93758 58.1436 12.8133 57.3672 18.0968H62.8459C63.5324 15.62 65.6363 14.0268 68.3216 14.0268C71.0403 14.0268 73.1508 15.62 73.838 18.0968H79.4574ZM57.3672 21.6246C58.1436 26.9073 62.3391 30.7838 67.3241 30.7838C70.3581 30.7838 72.6012 29.6252 74.0976 27.7634V30.2048H79.4574V21.6246H73.838C73.1508 24.1014 71.0403 25.6953 68.3216 25.6953C65.6363 25.6953 63.5324 24.1014 62.8459 21.6246H57.3672ZM48.3665 18.0968H53.727V0H48.3665V18.0968ZM48.3665 30.2041H53.727V21.6246H48.3665V30.2041ZM19.4056 18.0968V17.5027C19.4056 11.9991 15.9561 8.93758 11.5511 8.93758C8.76794 8.93758 6.60677 9.97203 5.36052 11.8338V1.24163H0V18.0968H5.4265C5.74694 15.1789 7.55794 13.9027 9.93154 13.9027C12.3211 13.9027 14.011 15.3298 14.04 18.0968H19.4056ZM0 30.2048H5.36052V21.6253H0V30.2048ZM14.0451 30.2048H19.4056V21.6253H14.0451V30.2048ZM44.7264 18.0968C43.8912 12.8133 39.3753 8.93758 33.8661 8.93758C28.3562 8.93758 23.8737 12.8133 23.0458 18.0968H28.5302C29.2291 15.7189 31.3026 14.151 33.8661 14.151C36.463 14.151 38.5423 15.7189 39.2426 18.0968H44.7264ZM23.0458 21.6246C23.8737 26.9073 28.3562 30.7838 33.8661 30.7838C39.3753 30.7838 43.8912 26.9073 44.7264 21.6246H39.2426C38.5423 24.0025 36.463 25.5704 33.8661 25.5704C31.3026 25.5704 29.2291 24.0025 28.5302 21.6246" fill="url(#paint0_linear_14212_13871)"/>
<defs>
<linearGradient id="paint0_linear_14212_13871" x1="0" y1="15.4769" x2="134" y2="15.4769" gradientUnits="userSpaceOnUse">
<stop stop-color="#FFBA03"/>
<stop offset="0.316876" stop-color="#F06C17"/>
<stop offset="1" stop-color="#E6007D"/>
</linearGradient>
</defs>
</svg>
